<svg class="svg-icon" style="width: 1em; height: 1em;vertical-align: middle;fill: currentColor;overflow: hidden;" viewBox="0 0 1024 1024" version="1.1" xmlns="http://www.w3.org/2000/svg"><path d="M512 963.764706C761.50275 963.764706 963.764706 761.50275 963.764706 512 963.764706 262.49725 761.50275 60.235294 512 60.235294 262.49725 60.235294 60.235294 262.49725 60.235294 512 60.235294 761.50275 262.49725 963.764706 512 963.764706L512 963.764706 512 963.764706 512 963.764706 512 963.764706ZM512 1024 512 1024C229.2302 1024 0 794.7698 0 512 0 229.2302 229.2302 0 512 0 794.7698 0 1024 229.2302 1024 512 1024 794.7698 794.7698 1024 512 1024L512 1024ZM400.972619 315.313333C374.15171 343.47529 361.411765 381.024557 361.411765 427.961133L414.383074 427.961133C414.383074 395.105521 421.758825 369.62566 436.510298 350.851042 452.60285 328.723787 477.412201 317.99543 510.938353 317.99543 539.10028 317.99543 561.227535 325.371181 576.649577 341.463703 591.40108 356.215206 599.447341 377.001412 599.447341 403.822321 599.447341 422.596969 592.742129 440.030569 579.331674 456.79363 575.308529 462.157794 567.262238 470.204085 556.53388 480.932442 520.325662 513.117545 498.198408 538.597406 488.811098 558.713073 480.764808 575.476164 476.741692 594.921321 476.741692 617.048576L476.741692 632.470588 530.383511 632.470588 530.383511 617.048576C530.383511 598.944437 534.406626 582.851915 543.123426 568.100412 549.828668 556.031006 559.886487 543.96157 574.63799 531.221655 604.140996 505.071255 622.245105 487.637685 628.950347 479.591394 645.713408 457.464139 654.430208 431.313769 654.430208 401.140224 654.430208 360.90886 641.690263 329.394296 616.880941 306.596533 590.730541 282.45772 556.53388 271.058824 513.62042 271.058824 465.342795 271.058824 427.793528 285.810327 400.972619 315.313333L400.972619 315.313333 400.972619 315.313333 400.972619 315.313333 400.972619 315.313333ZM518.023529 692.705882C507.783529 692.705882 499.350588 695.717647 492.122353 702.945882 484.894118 709.571765 481.882353 718.004706 481.882353 728.244706 481.882353 738.484706 484.894118 746.917647 492.122353 754.145882 499.350588 760.771765 507.783529 764.385882 518.023529 764.385882 528.263529 764.385882 536.696471 760.771765 543.924706 754.145882 551.152941 747.52 554.767059 739.087059 554.767059 728.244706 554.767059 718.004706 551.152941 709.571765 544.527059 702.945882 537.298824 695.717647 528.263529 692.705882 518.023529 692.705882L518.023529 692.705882 518.023529 692.705882 518.023529 692.705882 518.023529 692.705882Z"  /></svg>