<?xml version="1.0" encoding="UTF-8"?>
<svg width="63px" height="71px" viewBox="0 0 63 71" version="1.1" xmlns="http://www.w3.org/2000/svg" xmlns:xlink="http://www.w3.org/1999/xlink">
	<path fill="black" d="M15 25.4v27h33v-27H15zm3 3h10v2H18v-2zm27 21H18v-16h10v4l3.5-3.3 3.5 3.3v-4h10v16zm0-19H35v-2h10v2z"></path>
	<path  fill="black" d="M33.5 7.5l6-5.2-2-2.3-9.9 8.6L36.1 19l2.3-1.9-5.4-6.6c15 .8 27 13.3 27 28.5 0 15.7-12.8 28.5-28.5 28.5S3 54.6 3 38.9H0c0 17.4 14.1 31.5 31.5 31.5S63 56.3 63 38.9C63 22.2 49.9 8.5 33.5 7.5"></path>
</svg>