<?xml version="1.0" encoding="UTF-8"?>
<svg width="102px" height="56px" viewBox="0 0 102 56" version="1.1" xmlns="http://www.w3.org/2000/svg" xmlns:xlink="http://www.w3.org/1999/xlink">
	<path fill="black" d="M0 22.5h32v-3H0zM8 35.5h24v-3H8zM16 48.5h16v-3H16zM88 0c-7.2 0-13.2 5.5-13.9 12.5H38v43h53V27.7c6.3-1.4 11-7 11-13.7 0-7.7-6.3-14-14-14zM69.5 15.5h4.6c.2 1.4.5 2.7 1 4h-5.6v-4zm-28.5 0h18.5v4H41v-4zm47 37H41v-30h18.5v6l5-5.2 5 5.2v-6h7.4C79.5 25.8 83.5 28 88 28v24.5zM88 25c-6.1 0-11-4.9-11-11S81.9 3 88 3s11 4.9 11 11-4.9 11-11 11z"></path><path d="M88 13.5h-6.5v3H91V7h-3z"></path></svg>