<?xml version="1.0" encoding="UTF-8"?>
<svg width="14px" height="12px" viewBox="0 0 14 12" version="1.1" xmlns="http://www.w3.org/2000/svg" xmlns:xlink="http://www.w3.org/1999/xlink">
    <title>filter</title>
    <g id="Page-1" stroke="none" stroke-width="1" fill="none" fill-rule="evenodd">
        <g id="Icons" transform="translate(-97.000000, -45.000000)" fill="#000000">
            <g id="filter" transform="translate(97.000000, 45.000000)">
                <path d="M11,6 L11,7.999 L14,8 L14,10 L11,9.999 L11,12 L9,12 L9,9.999 L0,10 L0,8 L9,7.999 L9,6 L11,6 Z" id="Combined-Shape"></path>
                <path d="M5,1.8369702e-16 L5,1.999 L14,2 L14,4 L5,3.999 L5,6 L3,6 L3,3.999 L0,4 L0,2 L3,1.999 L3,-1.8369702e-16 L5,1.8369702e-16 Z" id="Combined-Shape"></path>
            </g>
        </g>
    </g>
</svg>